<svg xmlns="http://www.w3.org/2000/svg" xmlns:xlink="http://www.w3.org/1999/xlink" width="32" height="32" viewBox="0 0 32 32">
  <defs>
    <style>
      .cls-1 {
        fill: #4e9edc;
        fill-rule: evenodd;
        filter: url(#filter);
      }
    </style>
    <filter id="filter" x="469" y="4337" width="32" height="32" filterUnits="userSpaceOnUse">
      <feFlood result="flood" flood-color="#ebebeb"/>
      <feComposite result="composite" operator="in" in2="SourceGraphic"/>
      <feBlend result="blend" in2="SourceGraphic"/>
    </filter>
  </defs>
  <path id="twitter.svg" class="cls-1" d="M485,4337a16,16,0,1,1-16,16A16,16,0,0,1,485,4337Zm9.9,10.2a6.738,6.738,0,0,1-2.121.64,4.006,4.006,0,0,0,1.623-2.23,7.055,7.055,0,0,1-2.345.98,3.535,3.535,0,0,0-2.7-1.28,3.879,3.879,0,0,0-3.693,4.04,4.417,4.417,0,0,0,.1.92,10.235,10.235,0,0,1-7.613-4.22,4.331,4.331,0,0,0-.5,2.03,4.14,4.14,0,0,0,1.643,3.36,3.452,3.452,0,0,1-1.672-.5c0,0.01,0,.03,0,0.05a3.964,3.964,0,0,0,2.963,3.96,3.483,3.483,0,0,1-.973.14,3.2,3.2,0,0,1-.695-0.07,3.753,3.753,0,0,0,3.45,2.8,6.984,6.984,0,0,1-4.587,1.73,8.526,8.526,0,0,1-.881-0.05,9.857,9.857,0,0,0,5.662,1.81c6.793,0,10.508-6.15,10.508-11.49,0-.18,0-0.35-0.011-0.52a7.818,7.818,0,0,0,1.843-2.1" transform="translate(-469 -4337)"/>
</svg>
